<svg width="582" height="384" viewBox="0 0 582 384" fill="none" xmlns="http://www.w3.org/2000/svg">
<rect x="99.1357" y="0.5" width="374.72" height="231.412" rx="7.5" fill="url(#paint0_linear_4053_806)" fill-opacity="0.15" stroke="url(#paint1_linear_4053_806)"/>
<g filter="url(#filter0_i_4053_806)">
<rect x="129.745" y="104.916" width="50.865" height="31.7588" rx="6.34681" fill="url(#paint2_linear_4053_806)"/>
</g>
<g style="mix-blend-mode:overlay">
<path d="M130.475 39.0562V32.4062H131.748L134.579 37.0992H133.905L136.688 32.4062H137.952L137.971 39.0562H136.527L136.517 34.6197H136.783L134.56 38.3532H133.867L131.596 34.6197H131.919V39.0562H130.475ZM143.339 35.0852H146.54V36.2822H143.339V35.0852ZM143.453 37.8212H147.072V39.0562H141.923V32.4062H146.949V33.6412H143.453V37.8212ZM150.672 39.0562V32.4062H151.945L154.776 37.0992H154.101L156.885 32.4062H158.148L158.167 39.0562H156.723L156.714 34.6197H156.98L154.757 38.3532H154.063L151.793 34.6197H152.116V39.0562H150.672ZM162.12 39.0562V32.4062H165.369C166.205 32.4062 166.832 32.5645 167.25 32.8812C167.674 33.1978 167.887 33.6158 167.887 34.1352C167.887 34.4835 167.801 34.7875 167.63 35.0472C167.459 35.3005 167.225 35.4968 166.927 35.6362C166.629 35.7755 166.287 35.8452 165.901 35.8452L166.082 35.4557C166.5 35.4557 166.87 35.5253 167.193 35.6647C167.516 35.7977 167.766 35.9972 167.944 36.2632C168.127 36.5292 168.219 36.8553 168.219 37.2417C168.219 37.8117 167.994 38.2582 167.545 38.5812C167.095 38.8978 166.433 39.0562 165.559 39.0562H162.12ZM163.65 37.8972H165.445C165.844 37.8972 166.145 37.8338 166.348 37.7072C166.557 37.5742 166.661 37.3652 166.661 37.0802C166.661 36.8015 166.557 36.5957 166.348 36.4627C166.145 36.3233 165.844 36.2537 165.445 36.2537H163.536V35.1327H165.179C165.553 35.1327 165.838 35.0693 166.034 34.9427C166.237 34.8097 166.338 34.6102 166.338 34.3442C166.338 34.0845 166.237 33.8913 166.034 33.7647C165.838 33.6317 165.553 33.5652 165.179 33.5652H163.65V37.8972ZM173.175 35.0852H176.376V36.2822H173.175V35.0852ZM173.289 37.8212H176.908V39.0562H171.759V32.4062H176.785V33.6412H173.289V37.8212ZM180.508 39.0562V32.4062H183.386C183.982 32.4062 184.495 32.5043 184.925 32.7007C185.356 32.8907 185.688 33.1662 185.923 33.5272C186.157 33.8882 186.274 34.3188 186.274 34.8192C186.274 35.3132 186.157 35.7407 185.923 36.1017C185.688 36.4563 185.356 36.7287 184.925 36.9187C184.495 37.1087 183.982 37.2037 183.386 37.2037H181.363L182.047 36.5292V39.0562H180.508ZM184.735 39.0562L183.073 36.6432H184.716L186.398 39.0562H184.735ZM182.047 36.7002L181.363 35.9782H183.301C183.776 35.9782 184.13 35.8768 184.365 35.6742C184.599 35.4652 184.716 35.1802 184.716 34.8192C184.716 34.4518 184.599 34.1668 184.365 33.9642C184.13 33.7615 183.776 33.6602 183.301 33.6602H181.363L182.047 32.9287V36.7002ZM192.054 39.1702C191.522 39.1702 191.012 39.1005 190.524 38.9612C190.036 38.8155 189.644 38.6287 189.346 38.4007L189.869 37.2417C190.154 37.4443 190.489 37.6122 190.876 37.7452C191.268 37.8718 191.664 37.9352 192.063 37.9352C192.367 37.9352 192.611 37.9067 192.795 37.8497C192.985 37.7863 193.124 37.7008 193.213 37.5932C193.301 37.4855 193.346 37.362 193.346 37.2227C193.346 37.0453 193.276 36.906 193.137 36.8047C192.997 36.697 192.814 36.6115 192.586 36.5482C192.358 36.4785 192.104 36.4152 191.826 36.3582C191.553 36.2948 191.278 36.2188 190.999 36.1302C190.727 36.0415 190.477 35.9275 190.249 35.7882C190.021 35.6488 189.834 35.4652 189.688 35.2372C189.549 35.0092 189.479 34.7178 189.479 34.3632C189.479 33.9832 189.58 33.638 189.783 33.3277C189.992 33.011 190.302 32.7608 190.714 32.5772C191.132 32.3872 191.655 32.2922 192.282 32.2922C192.7 32.2922 193.111 32.3428 193.517 32.4442C193.922 32.5392 194.28 32.6848 194.59 32.8812L194.115 34.0497C193.805 33.8723 193.494 33.7425 193.184 33.6602C192.874 33.5715 192.57 33.5272 192.272 33.5272C191.974 33.5272 191.731 33.562 191.541 33.6317C191.351 33.7013 191.214 33.7932 191.132 33.9072C191.05 34.0148 191.009 34.1415 191.009 34.2872C191.009 34.4582 191.078 34.5975 191.218 34.7052C191.357 34.8065 191.541 34.8888 191.769 34.9522C191.997 35.0155 192.247 35.0788 192.519 35.1422C192.798 35.2055 193.073 35.2783 193.346 35.3607C193.624 35.443 193.878 35.5538 194.106 35.6932C194.334 35.8325 194.517 36.0162 194.657 36.2442C194.802 36.4722 194.875 36.7603 194.875 37.1087C194.875 37.4823 194.771 37.8243 194.562 38.1347C194.353 38.445 194.039 38.6952 193.621 38.8852C193.209 39.0752 192.687 39.1702 192.054 39.1702ZM202.862 32.4062H204.401V39.0562H202.862V32.4062ZM199.841 39.0562H198.302V32.4062H199.841V39.0562ZM202.976 36.3297H199.727V35.0282H202.976V36.3297ZM208.349 39.0562V32.4062H209.888V39.0562H208.349ZM213.841 39.0562V32.4062H216.72C217.315 32.4062 217.828 32.5043 218.259 32.7007C218.689 32.8907 219.022 33.1662 219.256 33.5272C219.491 33.8882 219.608 34.3188 219.608 34.8192C219.608 35.3132 219.491 35.7407 219.256 36.1017C219.022 36.4627 218.689 36.7413 218.259 36.9377C217.828 37.1277 217.315 37.2227 216.72 37.2227H214.696L215.38 36.5292V39.0562H213.841ZM215.38 36.7002L214.696 35.9687H216.634C217.109 35.9687 217.464 35.8673 217.698 35.6647C217.933 35.462 218.05 35.1802 218.05 34.8192C218.05 34.4518 217.933 34.1668 217.698 33.9642C217.464 33.7615 217.109 33.6602 216.634 33.6602H214.696L215.38 32.9287V36.7002Z" fill="white"/>
</g>
<g style="mix-blend-mode:overlay">
<path d="M130.746 204.743V194.677H135.319C136.412 194.677 137.375 194.888 138.21 195.31C139.044 195.722 139.695 196.302 140.165 197.05C140.635 197.798 140.87 198.684 140.87 199.71C140.87 200.726 140.635 201.613 140.165 202.37C139.695 203.118 139.044 203.703 138.21 204.125C137.375 204.537 136.412 204.743 135.319 204.743H130.746ZM133.076 202.831H135.204C135.875 202.831 136.455 202.706 136.944 202.457C137.443 202.198 137.826 201.834 138.094 201.364C138.372 200.894 138.512 200.343 138.512 199.71C138.512 199.068 138.372 198.517 138.094 198.056C137.826 197.587 137.443 197.227 136.944 196.978C136.455 196.719 135.875 196.59 135.204 196.59H133.076V202.831ZM144.758 204.743L149.245 194.677H151.546L156.047 204.743H153.602L149.921 195.856H150.841L147.145 204.743H144.758ZM147.002 202.586L147.62 200.817H152.797L153.429 202.586H147.002ZM163.158 204.743L158.815 194.677H161.332L165.128 203.593H163.647L167.501 194.677H169.816L165.459 204.743H163.158ZM174.252 204.743V194.677H176.581V204.743H174.252ZM182.565 204.743V194.677H187.138C188.231 194.677 189.194 194.888 190.028 195.31C190.862 195.722 191.514 196.302 191.984 197.05C192.454 197.798 192.689 198.684 192.689 199.71C192.689 200.726 192.454 201.613 191.984 202.37C191.514 203.118 190.862 203.703 190.028 204.125C189.194 204.537 188.231 204.743 187.138 204.743H182.565ZM184.895 202.831H187.023C187.694 202.831 188.274 202.706 188.763 202.457C189.261 202.198 189.645 201.834 189.913 201.364C190.191 200.894 190.33 200.343 190.33 199.71C190.33 199.068 190.191 198.517 189.913 198.056C189.645 197.587 189.261 197.227 188.763 196.978C188.274 196.719 187.694 196.59 187.023 196.59H184.895V202.831ZM205.708 204.743V194.677H210.065C210.966 194.677 211.743 194.826 212.395 195.123C213.046 195.411 213.55 195.828 213.904 196.374C214.259 196.92 214.437 197.572 214.437 198.33C214.437 199.077 214.259 199.725 213.904 200.271C213.55 200.808 213.046 201.22 212.395 201.508C211.743 201.795 210.966 201.939 210.065 201.939H207.002L208.037 200.918V204.743H205.708ZM212.107 204.743L209.59 201.091H212.078L214.623 204.743H212.107ZM208.037 201.177L207.002 200.084H209.936C210.655 200.084 211.191 199.931 211.546 199.624C211.901 199.308 212.078 198.876 212.078 198.33C212.078 197.774 211.901 197.342 211.546 197.035C211.191 196.729 210.655 196.575 209.936 196.575H207.002L208.037 195.468V201.177ZM227.545 204.743V194.677H229.472L233.757 201.781H232.736L236.949 194.677H238.862L238.891 204.743H236.705L236.69 198.028H237.093L233.728 203.679H232.678L229.242 198.028H229.731V204.743H227.545ZM247.376 204.743V200.63L247.908 202.04L243.479 194.677H245.952L249.346 200.328H247.922L251.33 194.677H253.617L249.188 202.04L249.706 200.63V204.743H247.376ZM260.245 198.732H265.091V200.544H260.245V198.732ZM260.418 202.874H265.896V204.743H258.102V194.677H265.709V196.547H260.418V202.874ZM271.345 204.743V194.677H275.702C276.603 194.677 277.38 194.826 278.032 195.123C278.684 195.411 279.187 195.828 279.542 196.374C279.896 196.92 280.074 197.572 280.074 198.33C280.074 199.077 279.896 199.725 279.542 200.271C279.187 200.808 278.684 201.22 278.032 201.508C277.38 201.795 276.603 201.939 275.702 201.939H272.639L273.674 200.918V204.743H271.345ZM277.744 204.743L275.228 201.091H277.715L280.261 204.743H277.744ZM273.674 201.177L272.639 200.084H275.573C276.292 200.084 276.828 199.931 277.183 199.624C277.538 199.308 277.715 198.876 277.715 198.33C277.715 197.774 277.538 197.342 277.183 197.035C276.828 196.729 276.292 196.575 275.573 196.575H272.639L273.674 195.468V201.177ZM288.822 204.916C288.016 204.916 287.245 204.81 286.507 204.599C285.768 204.379 285.174 204.096 284.723 203.751L285.514 201.997C285.946 202.303 286.454 202.557 287.039 202.759C287.633 202.95 288.232 203.046 288.836 203.046C289.296 203.046 289.665 203.003 289.943 202.917C290.231 202.821 290.442 202.692 290.576 202.529C290.71 202.366 290.777 202.179 290.777 201.968C290.777 201.699 290.672 201.488 290.461 201.335C290.25 201.172 289.972 201.043 289.627 200.947C289.282 200.841 288.898 200.746 288.477 200.659C288.064 200.563 287.647 200.448 287.226 200.314C286.813 200.18 286.435 200.007 286.089 199.796C285.744 199.586 285.462 199.308 285.241 198.962C285.03 198.617 284.925 198.176 284.925 197.639C284.925 197.064 285.078 196.542 285.385 196.072C285.701 195.593 286.171 195.214 286.794 194.936C287.427 194.648 288.218 194.505 289.167 194.505C289.8 194.505 290.423 194.581 291.036 194.735C291.65 194.878 292.191 195.099 292.661 195.396L291.942 197.165C291.472 196.896 291.003 196.7 290.533 196.575C290.063 196.441 289.603 196.374 289.152 196.374C288.702 196.374 288.333 196.427 288.045 196.532C287.758 196.638 287.551 196.777 287.427 196.949C287.302 197.112 287.24 197.304 287.24 197.524C287.24 197.783 287.345 197.994 287.556 198.157C287.767 198.31 288.045 198.435 288.39 198.531C288.735 198.627 289.114 198.723 289.526 198.819C289.948 198.914 290.365 199.025 290.777 199.149C291.199 199.274 291.583 199.442 291.928 199.653C292.273 199.864 292.551 200.142 292.762 200.487C292.982 200.832 293.093 201.268 293.093 201.795C293.093 202.361 292.934 202.879 292.618 203.348C292.302 203.818 291.827 204.197 291.194 204.484C290.571 204.772 289.78 204.916 288.822 204.916Z" fill="white"/>
</g>
<path d="M129.687 115.907H146.983C148.078 112.972 151.158 106.922 154.713 106.211C156.034 106.615 159.12 108.07 160.898 110.655M129.687 126.088H146.983C146.983 131.129 152.137 134.814 154.713 136.026C159.042 134.798 162.379 128.889 163.507 126.088H180.61M180.61 118.331H163.507C162.734 117.065 161.651 114.146 163.507 112.594" stroke="#7D7D7D" stroke-width="0.544012"/>
<g style="mix-blend-mode:overlay">
<path d="M190.231 118.219C190.887 119.237 191.805 121.75 190.231 123.652M194.558 116.266C195.541 117.879 196.918 122.005 194.558 125.604M198.393 114.229C199.671 116.408 201.461 122.09 198.393 127.387M202.523 112.616C204.161 115.191 206.456 122.073 202.523 129" stroke="white" stroke-width="2.09" stroke-linecap="round" stroke-linejoin="round"/>
</g>
<rect opacity="0.75" x="449.514" y="74.563" width="45.5418" height="44.5067" rx="22.2534" transform="rotate(-180 449.514 74.563)" fill="#B8B8B8"/>
<rect opacity="0.7" x="421.567" y="74.563" width="45.5418" height="44.5067" rx="22.2534" transform="rotate(-180 421.567 74.563)" fill="#5B5B5B"/>
<rect x="0.305664" y="333.283" width="173.887" height="50.717" rx="10" fill="#263F4C"/>
<path d="M54.7228 365.883C53.4295 365.883 52.2361 365.583 51.1428 364.983C50.0628 364.37 49.2028 363.523 48.5628 362.443C47.9361 361.35 47.6228 360.123 47.6228 358.763C47.6228 357.403 47.9361 356.183 48.5628 355.103C49.2028 354.023 50.0628 353.183 51.1428 352.583C52.2361 351.97 53.4295 351.663 54.7228 351.663C56.0295 351.663 57.2228 351.97 58.3028 352.583C59.3961 353.183 60.2561 354.023 60.8828 355.103C61.5095 356.183 61.8228 357.403 61.8228 358.763C61.8228 360.123 61.5095 361.35 60.8828 362.443C60.2561 363.523 59.3961 364.37 58.3028 364.983C57.2228 365.583 56.0295 365.883 54.7228 365.883ZM54.7228 363.823C55.6428 363.823 56.4628 363.616 57.1828 363.203C57.9028 362.776 58.4628 362.183 58.8628 361.423C59.2761 360.65 59.4828 359.763 59.4828 358.763C59.4828 357.763 59.2761 356.883 58.8628 356.123C58.4628 355.363 57.9028 354.776 57.1828 354.363C56.4628 353.95 55.6428 353.743 54.7228 353.743C53.8028 353.743 52.9828 353.95 52.2628 354.363C51.5428 354.776 50.9761 355.363 50.5628 356.123C50.1628 356.883 49.9628 357.763 49.9628 358.763C49.9628 359.763 50.1628 360.65 50.5628 361.423C50.9761 362.183 51.5428 362.776 52.2628 363.203C52.9828 363.616 53.8028 363.823 54.7228 363.823ZM75.0864 365.743H72.8064L65.9464 355.363V365.743H63.6664V351.823H65.9464L72.8064 362.183V351.823H75.0864V365.743ZM90.7166 358.603C91.4632 358.736 92.0966 359.13 92.6166 359.783C93.1366 360.436 93.3966 361.176 93.3966 362.003C93.3966 362.71 93.2099 363.35 92.8366 363.923C92.4766 364.483 91.9499 364.93 91.2566 365.263C90.5632 365.583 89.7566 365.743 88.8366 365.743H83.2766V351.843H88.5766C89.5232 351.843 90.3366 352.003 91.0166 352.323C91.6966 352.643 92.2099 353.076 92.5566 353.623C92.9032 354.156 93.0766 354.756 93.0766 355.423C93.0766 356.223 92.8632 356.89 92.4366 357.423C92.0099 357.956 91.4366 358.35 90.7166 358.603ZM85.5566 357.743H88.3766C89.1232 357.743 89.7032 357.563 90.1166 357.203C90.5432 356.843 90.7566 356.343 90.7566 355.703C90.7566 355.05 90.5432 354.543 90.1166 354.183C89.7032 353.81 89.1232 353.623 88.3766 353.623H85.5566V357.743ZM88.6366 363.963C89.4099 363.963 90.0166 363.77 90.4566 363.383C90.8966 362.996 91.1166 362.456 91.1166 361.763C91.1166 361.083 90.8832 360.543 90.4166 360.143C89.9499 359.73 89.3299 359.523 88.5566 359.523H85.5566V363.963H88.6366ZM97.7342 351.843V360.663C97.7342 361.716 98.0076 362.51 98.5542 363.043C99.1142 363.576 99.8876 363.843 100.874 363.843C101.874 363.843 102.648 363.576 103.194 363.043C103.754 362.51 104.034 361.716 104.034 360.663V351.843H106.314V360.663C106.314 361.796 106.068 362.756 105.574 363.543C105.081 364.33 104.421 364.916 103.594 365.303C102.768 365.69 101.854 365.883 100.854 365.883C99.8542 365.883 98.9409 365.69 98.1142 365.303C97.3009 364.916 96.6542 364.33 96.1742 363.543C95.6942 362.756 95.4542 361.796 95.4542 360.663V351.843H97.7342ZM113.423 351.843C114.903 351.843 116.196 352.13 117.303 352.703C118.423 353.263 119.283 354.076 119.883 355.143C120.496 356.196 120.803 357.43 120.803 358.843C120.803 360.256 120.496 361.483 119.883 362.523C119.283 363.563 118.423 364.363 117.303 364.923C116.196 365.47 114.903 365.743 113.423 365.743H108.883V351.843H113.423ZM113.423 364.003C115.036 364.003 116.276 363.543 117.143 362.623C118.023 361.703 118.463 360.443 118.463 358.843C118.463 357.23 118.023 355.97 117.143 355.063C116.276 354.143 115.036 353.683 113.423 353.683H111.163V364.003H113.423ZM121.902 358.763C121.902 357.403 122.216 356.183 122.842 355.103C123.482 354.023 124.342 353.183 125.422 352.583C126.516 351.97 127.709 351.663 129.002 351.663C130.482 351.663 131.796 352.03 132.942 352.763C134.102 353.483 134.942 354.51 135.462 355.843H132.722C132.362 355.15 131.862 354.63 131.222 354.283C130.582 353.923 129.842 353.743 129.002 353.743C128.082 353.743 127.262 353.95 126.542 354.363C125.822 354.776 125.256 355.363 124.842 356.123C124.442 356.883 124.242 357.763 124.242 358.763C124.242 359.763 124.442 360.65 124.842 361.423C125.256 362.183 125.822 362.77 126.542 363.183C127.262 363.596 128.082 363.803 129.002 363.803C130.242 363.803 131.249 363.456 132.022 362.763C132.809 362.056 133.282 361.103 133.442 359.903H128.222V358.123H135.882V359.903C135.736 360.983 135.349 361.976 134.722 362.883C134.109 363.79 133.302 364.516 132.302 365.063C131.316 365.596 130.216 365.863 129.002 365.863C127.696 365.863 126.502 365.563 125.422 364.963C124.342 364.35 123.482 363.503 122.842 362.423C122.216 361.343 121.902 360.123 121.902 358.763ZM140.011 353.603V357.823H144.811V359.583H140.011V363.963H145.411V365.743H137.731V351.823H145.411V353.603H140.011ZM156.8 351.843V353.623H153.1V365.743H150.82V353.623H147.1V351.843H156.8Z" fill="white"/>
<path d="M25.0777 362.15C24.6872 362.54 24.054 362.54 23.6635 362.15L21.2432 359.729C20.8527 359.339 20.2196 359.339 19.829 359.729L19.5968 359.962C19.2062 360.352 19.2062 360.985 19.5968 361.376L23.6635 365.443C24.054 365.833 24.6872 365.833 25.0777 365.443L34.9665 355.554C35.357 355.163 35.357 354.53 34.9665 354.14L34.7342 353.907C34.3437 353.517 33.7105 353.517 33.32 353.907L25.0777 362.15Z" fill="white" stroke="white"/>
<rect x="401.901" y="333.283" width="180.097" height="50.717" rx="10" fill="#263F4C"/>
<path d="M452.259 351.843V365.743H449.979V351.843H452.259ZM466.272 365.743H463.992L457.132 355.363V365.743H454.852V351.823H457.132L463.992 362.183V351.823H466.272V365.743ZM473.702 358.763C473.702 357.403 474.015 356.183 474.642 355.103C475.282 354.023 476.142 353.183 477.222 352.583C478.315 351.97 479.509 351.663 480.802 351.663C482.282 351.663 483.595 352.03 484.742 352.763C485.902 353.483 486.742 354.51 487.262 355.843H484.522C484.162 355.15 483.662 354.63 483.022 354.283C482.382 353.923 481.642 353.743 480.802 353.743C479.882 353.743 479.062 353.95 478.342 354.363C477.622 354.776 477.055 355.363 476.642 356.123C476.242 356.883 476.042 357.763 476.042 358.763C476.042 359.763 476.242 360.65 476.642 361.423C477.055 362.183 477.622 362.77 478.342 363.183C479.062 363.596 479.882 363.803 480.802 363.803C481.642 363.803 482.382 363.63 483.022 363.283C483.662 362.923 484.162 362.396 484.522 361.703H487.262C486.742 363.036 485.902 364.063 484.742 364.783C483.595 365.503 482.282 365.863 480.802 365.863C479.495 365.863 478.302 365.563 477.222 364.963C476.142 364.35 475.282 363.503 474.642 362.423C474.015 361.343 473.702 360.123 473.702 358.763ZM495.871 365.883C494.578 365.883 493.384 365.583 492.291 364.983C491.211 364.37 490.351 363.523 489.711 362.443C489.084 361.35 488.771 360.123 488.771 358.763C488.771 357.403 489.084 356.183 489.711 355.103C490.351 354.023 491.211 353.183 492.291 352.583C493.384 351.97 494.578 351.663 495.871 351.663C497.178 351.663 498.371 351.97 499.451 352.583C500.544 353.183 501.404 354.023 502.031 355.103C502.658 356.183 502.971 357.403 502.971 358.763C502.971 360.123 502.658 361.35 502.031 362.443C501.404 363.523 500.544 364.37 499.451 364.983C498.371 365.583 497.178 365.883 495.871 365.883ZM495.871 363.823C496.791 363.823 497.611 363.616 498.331 363.203C499.051 362.776 499.611 362.183 500.011 361.423C500.424 360.65 500.631 359.763 500.631 358.763C500.631 357.763 500.424 356.883 500.011 356.123C499.611 355.363 499.051 354.776 498.331 354.363C497.611 353.95 496.791 353.743 495.871 353.743C494.951 353.743 494.131 353.95 493.411 354.363C492.691 354.776 492.124 355.363 491.711 356.123C491.311 356.883 491.111 357.763 491.111 358.763C491.111 359.763 491.311 360.65 491.711 361.423C492.124 362.183 492.691 362.776 493.411 363.203C494.131 363.616 494.951 363.823 495.871 363.823ZM516.234 365.743H513.954L507.094 355.363V365.743H504.814V351.823H507.094L513.954 362.183V351.823H516.234V365.743ZM527.809 351.843V353.623H524.109V365.743H521.829V353.623H518.109V351.843H527.809ZM536.938 365.743L533.738 360.183H531.998V365.743H529.718V351.843H534.518C535.584 351.843 536.484 352.03 537.218 352.403C537.964 352.776 538.518 353.276 538.878 353.903C539.251 354.53 539.438 355.23 539.438 356.003C539.438 356.91 539.171 357.736 538.638 358.483C538.118 359.216 537.311 359.716 536.218 359.983L539.658 365.743H536.938ZM531.998 358.383H534.518C535.371 358.383 536.011 358.17 536.438 357.743C536.878 357.316 537.098 356.736 537.098 356.003C537.098 355.256 536.884 354.676 536.458 354.263C536.031 353.836 535.384 353.623 534.518 353.623H531.998V358.383ZM548.294 365.883C547.001 365.883 545.808 365.583 544.714 364.983C543.634 364.37 542.774 363.523 542.134 362.443C541.508 361.35 541.194 360.123 541.194 358.763C541.194 357.403 541.508 356.183 542.134 355.103C542.774 354.023 543.634 353.183 544.714 352.583C545.808 351.97 547.001 351.663 548.294 351.663C549.601 351.663 550.794 351.97 551.874 352.583C552.968 353.183 553.828 354.023 554.454 355.103C555.081 356.183 555.394 357.403 555.394 358.763C555.394 360.123 555.081 361.35 554.454 362.443C553.828 363.523 552.968 364.37 551.874 364.983C550.794 365.583 549.601 365.883 548.294 365.883ZM548.294 363.823C549.214 363.823 550.034 363.616 550.754 363.203C551.474 362.776 552.034 362.183 552.434 361.423C552.848 360.65 553.054 359.763 553.054 358.763C553.054 357.763 552.848 356.883 552.434 356.123C552.034 355.363 551.474 354.776 550.754 354.363C550.034 353.95 549.214 353.743 548.294 353.743C547.374 353.743 546.554 353.95 545.834 354.363C545.114 354.776 544.548 355.363 544.134 356.123C543.734 356.883 543.534 357.763 543.534 358.763C543.534 359.763 543.734 360.65 544.134 361.423C544.548 362.183 545.114 362.776 545.834 363.203C546.554 363.616 547.374 363.823 548.294 363.823ZM559.518 364.003H564.218V365.743H557.238V351.843H559.518V364.003Z" fill="white"/>
<path d="M426.673 362.15C426.283 362.54 425.65 362.54 425.259 362.15L422.839 359.729C422.448 359.339 421.815 359.339 421.425 359.729L421.192 359.962C420.802 360.352 420.802 360.985 421.192 361.376L425.259 365.443C425.65 365.833 426.283 365.833 426.673 365.443L436.562 355.554C436.953 355.163 436.953 354.53 436.562 354.14L436.33 353.907C435.939 353.517 435.306 353.517 434.916 353.907L426.673 362.15Z" fill="white" stroke="white"/>
<rect x="212.489" y="333.283" width="151.116" height="50.717" rx="10" fill="#263F4C"/>
<path d="M261.886 351.843L265.986 363.383L270.126 351.843H272.546L267.326 365.743H264.686L259.446 351.843H261.886ZM276.333 351.843V365.743H274.053V351.843H276.333ZM283.507 365.883C282.573 365.883 281.733 365.723 280.987 365.403C280.24 365.07 279.653 364.603 279.227 364.003C278.8 363.403 278.587 362.703 278.587 361.903H281.027C281.08 362.53 281.313 363.043 281.727 363.443C282.153 363.843 282.747 364.043 283.507 364.043C284.293 364.043 284.907 363.85 285.347 363.463C285.787 363.063 286.007 362.55 286.007 361.923C286.007 361.456 285.867 361.076 285.587 360.783C285.32 360.49 284.98 360.263 284.567 360.103C284.167 359.943 283.607 359.77 282.887 359.583C281.98 359.343 281.24 359.103 280.667 358.863C280.107 358.61 279.627 358.223 279.227 357.703C278.827 357.183 278.627 356.49 278.627 355.623C278.627 354.823 278.827 354.123 279.227 353.523C279.627 352.923 280.187 352.463 280.907 352.143C281.627 351.823 282.46 351.663 283.407 351.663C284.753 351.663 285.853 352.003 286.707 352.683C287.573 353.35 288.053 354.27 288.147 355.443H285.627C285.587 354.896 285.347 354.443 284.907 354.083C284.48 353.71 283.9 353.523 283.167 353.523C282.5 353.523 281.96 353.696 281.547 354.043C281.147 354.376 280.947 354.876 280.947 355.543C280.947 355.97 281.073 356.323 281.327 356.603C281.593 356.87 281.927 357.083 282.327 357.243C282.727 357.403 283.273 357.576 283.967 357.763C284.887 358.016 285.633 358.27 286.207 358.523C286.793 358.776 287.287 359.17 287.687 359.703C288.1 360.223 288.307 360.923 288.307 361.803C288.307 362.51 288.113 363.176 287.727 363.803C287.353 364.43 286.8 364.936 286.067 365.323C285.347 365.696 284.493 365.883 283.507 365.883ZM292.877 351.843V365.743H290.597V351.843H292.877ZM302.91 358.603C303.657 358.736 304.29 359.13 304.81 359.783C305.33 360.436 305.59 361.176 305.59 362.003C305.59 362.71 305.404 363.35 305.03 363.923C304.67 364.483 304.144 364.93 303.45 365.263C302.757 365.583 301.95 365.743 301.03 365.743H295.47V351.843H300.77C301.717 351.843 302.53 352.003 303.21 352.323C303.89 352.643 304.404 353.076 304.75 353.623C305.097 354.156 305.27 354.756 305.27 355.423C305.27 356.223 305.057 356.89 304.63 357.423C304.204 357.956 303.63 358.35 302.91 358.603ZM297.75 357.743H300.57C301.317 357.743 301.897 357.563 302.31 357.203C302.737 356.843 302.95 356.343 302.95 355.703C302.95 355.05 302.737 354.543 302.31 354.183C301.897 353.81 301.317 353.623 300.57 353.623H297.75V357.743ZM300.83 363.963C301.604 363.963 302.21 363.77 302.65 363.383C303.09 362.996 303.31 362.456 303.31 361.763C303.31 361.083 303.077 360.543 302.61 360.143C302.144 359.73 301.524 359.523 300.75 359.523H297.75V363.963H300.83ZM309.948 351.843V365.743H307.668V351.843H309.948ZM314.821 364.003H319.521V365.743H312.541V351.843H314.821V364.003ZM323.308 351.843V365.743H321.028V351.843H323.308ZM334.882 351.843V353.623H331.182V365.743H328.902V353.623H325.182V351.843H334.882ZM347.091 351.843L342.491 360.703V365.743H340.211V360.703L335.591 351.843H338.131L341.331 358.623L344.531 351.843H347.091Z" fill="white"/>
<path d="M237.261 362.15C236.871 362.54 236.238 362.54 235.847 362.15L233.427 359.729C233.036 359.339 232.403 359.339 232.013 359.729L231.78 359.962C231.39 360.352 231.39 360.985 231.78 361.376L235.847 365.443C236.238 365.833 236.871 365.833 237.261 365.443L247.15 355.554C247.541 355.163 247.541 354.53 247.15 354.14L246.918 353.907C246.527 353.517 245.894 353.517 245.504 353.907L237.261 362.15Z" fill="white" stroke="white"/>
<line x1="287.512" y1="243.274" x2="287.512" y2="296.411" stroke="#54A7D1"/>
<line x1="287.012" y1="295.911" x2="497.125" y2="295.911" stroke="#54A7D1"/>
<line x1="288.047" y1="296.01" x2="87.249" y2="296.01" stroke="#54A7D1"/>
<line x1="87.749" y1="295.51" x2="87.749" y2="311.721" stroke="#54A7D1"/>
<line x1="287.512" y1="296.411" x2="287.512" y2="312.622" stroke="#54A7D1"/>
<line x1="496.59" y1="296.411" x2="496.59" y2="312.622" stroke="#54A7D1"/>
<defs>
<filter id="filter0_i_4053_806" x="129.745" y="104.916" width="50.8652" height="31.7588" filterUnits="userSpaceOnUse" color-interpolation-filters="sRGB">
<feFlood flood-opacity="0" result="BackgroundImageFix"/>
<feBlend mode="normal" in="SourceGraphic" in2="BackgroundImageFix" result="shape"/>
<feColorMatrix in="SourceAlpha" type="matrix" values="0 0 0 0 0 0 0 0 0 0 0 0 0 0 0 0 0 0 127 0" result="hardAlpha"/>
<feOffset dx="-0.544012" dy="-0.544012"/>
<feComposite in2="hardAlpha" operator="arithmetic" k2="-1" k3="1"/>
<feColorMatrix type="matrix" values="0 0 0 0 0 0 0 0 0 0 0 0 0 0 0 0 0 0 0.25 0"/>
<feBlend mode="normal" in2="shape" result="effect1_innerShadow_4053_806"/>
</filter>
<linearGradient id="paint0_linear_4053_806" x1="124.512" y1="27.4286" x2="233.851" y2="181.539" gradientUnits="userSpaceOnUse">
<stop offset="0.252148" stop-color="#5B9EBE"/>
<stop offset="0.950825" stop-color="#2A4958"/>
</linearGradient>
<linearGradient id="paint1_linear_4053_806" x1="74.2246" y1="-20.1272" x2="160.134" y2="156.422" gradientUnits="userSpaceOnUse">
<stop stop-color="#5B9EBE" stop-opacity="0.8"/>
<stop offset="1" stop-color="#2A4958" stop-opacity="0"/>
</linearGradient>
<linearGradient id="paint2_linear_4053_806" x1="129.745" y1="104.916" x2="170.376" y2="142.079" gradientUnits="userSpaceOnUse">
<stop stop-color="#ABABAB"/>
<stop offset="0.3125" stop-color="white"/>
<stop offset="0.630208" stop-color="#BDBDBD"/>
<stop offset="1" stop-color="#5E5E5E"/>
</linearGradient>
</defs>
</svg>
