<svg width="354" height="306" viewBox="0 0 354 306" fill="none" xmlns="http://www.w3.org/2000/svg">
<mask id="path-1-inside-1_2906_191" fill="white">
<path d="M0 8C0 3.58172 3.58172 0 8 0H346C350.418 0 354 3.58172 354 8V298C354 302.418 350.418 306 346 306H8C3.58172 306 0 302.418 0 298V8Z"/>
</mask>
<path d="M0 8C0 3.58172 3.58172 0 8 0H346C350.418 0 354 3.58172 354 8V298C354 302.418 350.418 306 346 306H8C3.58172 306 0 302.418 0 298V8Z" fill="url(#paint0_linear_2906_191)" fill-opacity="0.15"/>
<path d="M-1 8C-1 3.02944 3.02944 -1 8 -1H345C349.971 -1 354 3.02944 354 8C354 4.13401 350.418 1 346 1H8C4.13401 1 1 4.13401 1 8H-1ZM354 306H0H354ZM8 306C3.02944 306 -1 301.971 -1 297V8C-1 3.02944 3.02944 -1 8 -1V1C4.13401 1 1 4.13401 1 8V298C1 302.418 4.13401 306 8 306ZM354 0V306V0Z" fill="url(#paint1_linear_2906_191)" mask="url(#path-1-inside-1_2906_191)"/>
<defs>
<linearGradient id="paint0_linear_2906_191" x1="46" y1="29" x2="145" y2="181.5" gradientUnits="userSpaceOnUse">
<stop offset="0.289234" stop-color="#5B9EBE"/>
<stop offset="1" stop-color="#2A4958"/>
</linearGradient>
<linearGradient id="paint1_linear_2906_191" x1="-23" y1="-26.5" x2="121.5" y2="201.5" gradientUnits="userSpaceOnUse">
<stop stop-color="#5B9EBE" stop-opacity="0.8"/>
<stop offset="1" stop-color="#2A4958" stop-opacity="0"/>
</linearGradient>
</defs>
</svg>
