<svg width="663" height="119" viewBox="0 0 663 119" fill="none" xmlns="http://www.w3.org/2000/svg">
<path d="M7.8 28.7C13 19.7 20 12.7 29 7.69995C38 2.69995 48 0.199951 59.2 0.199951C72.2 0.199951 83.6 3.49996 93.4 10.1C103.2 16.7 110 25.9 114 37.6H87.1C84.4 32.1 80.7 28 75.8 25.2C71 22.4 65.4 21.1 59 21.1C52.2 21.1 46.2 22.6999 40.9 25.7999C35.6 28.8999 31.5 33.4 28.5 39.1C25.5 44.8 24.1 51.5999 24.1 59.2999C24.1 66.8999 25.6 73.5999 28.5 79.3999C31.4 85.2 35.6 89.5999 40.9 92.7999C46.2 95.9999 52.2 97.5 59 97.5C65.4 97.5 70.9 96.0999 75.8 93.2999C80.7 90.4999 84.4 86.2999 87.1 80.7999H114C110.1 92.5999 103.3 101.8 93.5 108.3C83.7 114.8 72.3 118.1 59.2 118.1C48.1 118.1 38 115.6 29 110.6C20 105.6 13 98.6 7.8 89.7C2.6 80.8 0 70.5999 0 59.2999C0 47.8999 2.6 37.7 7.8 28.7Z" fill="white"/>
<path d="M240.4 112.3C233.3 108.4 227.7 102.8 223.6 95.5999C219.5 88.3999 217.5 80.1 217.5 70.7C217.5 61.2999 219.6 52.9999 223.8 45.7999C228 38.5999 233.7 32.9999 240.9 29.0999C248.1 25.1999 256.2 23.2 265.1 23.2C274 23.2 282.1 25.1999 289.3 29.0999C296.5 32.9999 302.3 38.5999 306.4 45.7999C310.6 52.9999 312.7 61.2999 312.7 70.7C312.7 80.1 310.6 88.3999 306.3 95.5999C302 102.8 296.2 108.4 288.9 112.3C281.6 116.2 273.4 118.2 264.4 118.2C255.6 118.2 247.6 116.2 240.4 112.3ZM276.4 94.7999C280.1 92.7999 283.1 89.6999 285.3 85.5999C287.5 81.4999 288.6 76.4999 288.6 70.5999C288.6 61.7999 286.3 55.0999 281.7 50.3999C277.1 45.6999 271.4 43.2999 264.7 43.2999C258 43.2999 252.4 45.6999 247.9 50.3999C243.4 55.0999 241.1 61.8999 241.1 70.5999C241.1 79.3999 243.3 86.0999 247.7 90.7999C252.1 95.4999 257.6 97.8999 264.3 97.8999C268.7 97.8999 272.7 96.8999 276.4 94.7999Z" fill="white"/>
<path d="M466.4 77.5999H398.7C399.3 84.1999 401.6 89.5 405.7 93.2C409.8 97 414.9 98.7999 420.9 98.7999C429.6 98.7999 435.8 95.1 439.4 87.7H464.6C461.9 96.6 456.8 103.9 449.2 109.6C441.6 115.3 432.3 118.2 421.3 118.2C412.4 118.2 404.4 116.2 397.3 112.3C390.2 108.4 384.7 102.8 380.8 95.5999C376.8 88.3999 374.9 80.1 374.9 70.7C374.9 61.2 376.9 52.7999 380.8 45.5999C384.7 38.3999 390.2 32.7999 397.2 28.9999C404.2 25.0999 412.3 23.2 421.4 23.2C430.2 23.2 438.1 25.0999 445 28.7999C452 32.5999 457.4 37.8999 461.2 44.7999C465 51.6999 467 59.7 467 68.7C467.1 72 466.8 74.9999 466.4 77.5999ZM442.8 61.9999C442.7 55.9999 440.5 51.1999 436.3 47.5999C432.1 43.9999 426.9 42.2 420.8 42.2C415 42.2 410.1 43.9999 406.2 47.3999C402.2 50.8999 399.8 55.6999 398.9 61.8999L442.8 61.9999Z" fill="white"/>
<path d="M498 112.3C490.9 108.4 485.3 102.8 481.2 95.5999C477.1 88.3999 475.1 80.1 475.1 70.7C475.1 61.2999 477.2 52.9999 481.4 45.7999C485.6 38.5999 491.3 32.9999 498.5 29.0999C505.7 25.1999 513.8 23.2 522.7 23.2C531.6 23.2 539.7 25.1999 546.9 29.0999C554.1 32.9999 559.9 38.5999 564 45.7999C568.2 52.9999 570.3 61.2999 570.3 70.7C570.3 80.1 568.1 88.3999 563.9 95.5999C559.6 102.8 553.8 108.4 546.5 112.3C539.2 116.2 531 118.2 522 118.2C513.1 118.2 505.1 116.2 498 112.3ZM534 94.7999C537.7 92.7999 540.7 89.6999 542.9 85.5999C545.1 81.4999 546.2 76.4999 546.2 70.5999C546.2 61.7999 543.9 55.0999 539.3 50.3999C534.7 45.6999 529 43.2999 522.3 43.2999C515.6 43.2999 510 45.6999 505.5 50.3999C501 55.0999 498.7 61.8999 498.7 70.5999C498.7 79.3999 500.9 86.0999 505.3 90.7999C509.7 95.4999 515.2 97.8999 521.9 97.8999C526.2 97.8999 530.2 96.8999 534 94.7999Z" fill="white"/>
<path d="M209.5 48.3999V118H185.8V78.0999C185.7 60.2999 196.4 48.3999 209.5 48.3999Z" fill="white"/>
<path d="M209.5 47H151.6C150.7 47 149.7 47.4 149.1 48.1C148.7 48.6 148.4 49.3 148.4 50.1V118.3H125.1V0H148.5V30C148.5 32.9 151.3 34.5 153.2 32.6C154.1 31.7 155.2 30.8 156.2 30C157.6 29 159 28 160.5 27.2C165.5 24.5 171.1 23.1 177.2 23.1C184.2 23.1 190.4 24.9 195.9 28.6C196.6 29 197.2 29.5 197.8 30C201.4 32.9 204.4 36.6 206.9 41.2C207.5 42.4 208.1 43.7 208.7 45C209 45.6 209.2 46.3 209.5 47Z" fill="white"/>
<path d="M662.7 48.4001V118H639V78.1002C639 60.4002 649.6 48.4001 662.7 48.4001Z" fill="white"/>
<path d="M662.7 47.0001H604.8C603.9 47.0001 602.9 47.4001 602.3 48.1001C601.9 48.6001 601.6 49.3001 601.6 50.1001V118.3H578.3V23.1001H601.7V30.1001C601.7 33.0001 604.5 34.6001 606.4 32.7001C607.4 31.8001 608.4 30.9001 609.4 30.1001C610.7 29.1001 612.2 28.1001 613.7 27.3001C618.7 24.6001 624.3 23.2001 630.4 23.2001C637.4 23.2001 643.6 25.0001 649.1 28.7001C649.8 29.1001 650.4 29.6001 651 30.1001C654.6 33.0001 657.6 36.7001 660.1 41.3001C660.7 42.5001 661.3 43.8001 661.9 45.1001C662.2 45.6001 662.5 46.3001 662.7 47.0001Z" fill="white"/>
<path d="M344.5 77.8V118.2H320.8V48.4C333.9 48.3 344.5 60.2 344.5 77.8Z" fill="white"/>
<path d="M372.1 23.1001V46.8001H320.8C320.8 33.7001 332.7 23.1001 350.3 23.1001H372.1Z" fill="white"/>
</svg>
