<svg width="25" height="24" viewBox="0 0 25 24" fill="none" xmlns="http://www.w3.org/2000/svg">
<path d="M22.5046 7.20301C22.3865 6.78041 22.1558 6.39501 21.8353 6.08518C21.5149 5.77534 21.1159 5.55187 20.6781 5.43701C19.0548 5.00701 12.5606 5.00001 12.5606 5.00001C12.5606 5.00001 6.06738 4.99301 4.44305 5.40401C4.00553 5.52415 3.60737 5.75078 3.2868 6.06214C2.96623 6.3735 2.73401 6.75913 2.61243 7.18201C2.18432 8.74801 2.18018 11.996 2.18018 11.996C2.18018 11.996 2.17603 15.26 2.60103 16.81C2.83945 17.667 3.53914 18.344 4.42854 18.575C6.06842 19.005 12.545 19.012 12.545 19.012C12.545 19.012 19.0392 19.019 20.6625 18.609C21.1005 18.4943 21.4998 18.2714 21.8211 17.9622C22.1423 17.653 22.3743 17.2682 22.4942 16.846C22.9233 15.281 22.9265 12.034 22.9265 12.034C22.9265 12.034 22.9472 8.76901 22.5046 7.20301ZM10.4832 15.005L10.4884 9.00501L15.8859 12.01L10.4832 15.005Z" fill="white"/>
</svg>
