<svg width="38" height="32" viewBox="0 0 38 32" fill="none" xmlns="http://www.w3.org/2000/svg">
<path d="M34.5 0H2.875C2.1125 0 1.38123 0.302901 0.842068 0.842068C0.302901 1.38123 0 2.1125 0 2.875V28.75C0 29.5125 0.302901 30.2438 0.842068 30.7829C1.38123 31.3221 2.1125 31.625 2.875 31.625H34.5C35.2625 31.625 35.9938 31.3221 36.5329 30.7829C37.0721 30.2438 37.375 29.5125 37.375 28.75V2.875C37.375 2.1125 37.0721 1.38123 36.5329 0.842068C35.9938 0.302901 35.2625 0 34.5 0ZM9.64203 24.017C9.3723 24.2868 9.00646 24.4383 8.625 24.4383C8.24354 24.4383 7.8777 24.2868 7.60797 24.017C7.33823 23.7473 7.1867 23.3815 7.1867 23C7.1867 22.6185 7.33823 22.2527 7.60797 21.983L13.7802 15.8125L7.60797 9.64203C7.33823 9.3723 7.1867 9.00646 7.1867 8.625C7.1867 8.24354 7.33823 7.8777 7.60797 7.60797C7.8777 7.33823 8.24354 7.1867 8.625 7.1867C9.00646 7.1867 9.3723 7.33823 9.64203 7.60797L16.8295 14.7955C16.9632 14.929 17.0692 15.0875 17.1416 15.262C17.2139 15.4365 17.2511 15.6236 17.2511 15.8125C17.2511 16.0014 17.2139 16.1885 17.1416 16.363C17.0692 16.5375 16.9632 16.696 16.8295 16.8295L9.64203 24.017ZM30.1875 24.4375H18.6875C18.3063 24.4375 17.9406 24.2861 17.671 24.0165C17.4015 23.7469 17.25 23.3812 17.25 23C17.25 22.6188 17.4015 22.2531 17.671 21.9835C17.9406 21.7139 18.3063 21.5625 18.6875 21.5625H30.1875C30.5687 21.5625 30.9344 21.7139 31.204 21.9835C31.4736 22.2531 31.625 22.6188 31.625 23C31.625 23.3812 31.4736 23.7469 31.204 24.0165C30.9344 24.2861 30.5687 24.4375 30.1875 24.4375Z" fill="url(#paint0_linear_2792_185)"/>
<defs>
<linearGradient id="paint0_linear_2792_185" x1="18.6875" y1="0" x2="18.6875" y2="31.625" gradientUnits="userSpaceOnUse">
<stop stop-color="#54A7D1"/>
<stop offset="1" stop-color="#2B556B"/>
</linearGradient>
</defs>
</svg>
