<svg width="40" height="40" viewBox="0 0 40 40" fill="none" xmlns="http://www.w3.org/2000/svg">
<path d="M15.569 31.8315C14.6669 33.8036 11.6568 38.4039 3.19823 38.4039C2.77385 38.4039 2.36686 38.2353 2.06679 37.9352C1.76671 37.6352 1.59813 37.2282 1.59813 36.8038C1.59813 28.3453 6.19841 25.3351 8.17054 24.433C8.36175 24.3458 8.56827 24.2971 8.77831 24.2897C8.98834 24.2824 9.19777 24.3164 9.39464 24.3899C9.59151 24.4635 9.77197 24.5751 9.92571 24.7184C10.0795 24.8617 10.2035 25.0339 10.2907 25.2251C10.3779 25.4163 10.4266 25.6228 10.4339 25.8328C10.4413 26.0429 10.4073 26.2523 10.3337 26.4492C10.2602 26.646 10.1486 26.8265 10.0053 26.9802C9.862 27.134 9.68984 27.258 9.49862 27.3452C8.21254 27.9312 5.37436 29.8174 4.87433 35.1277C10.1847 34.6277 12.0748 31.7895 12.6568 30.5034C12.744 30.3122 12.868 30.14 13.0218 29.9967C13.1755 29.8534 13.356 29.7418 13.5528 29.6683C13.7497 29.5947 13.9591 29.5607 14.1692 29.5681C14.3792 29.5755 14.5857 29.6241 14.7769 29.7113C14.9682 29.7986 15.1403 29.9226 15.2836 30.0763C15.4269 30.23 15.5385 30.4105 15.6121 30.6074C15.6856 30.8043 15.7197 31.0137 15.7123 31.2237C15.7049 31.4337 15.6562 31.6403 15.569 31.8315ZM39.9705 3.02968C39.9231 2.24948 39.5918 1.51361 39.0391 0.960915C38.4864 0.408215 37.7505 0.0769036 36.9703 0.0294908C34.4542 -0.120519 28.0238 0.109496 22.6894 5.44383L12.7988 15.3425C12.6503 15.4912 12.4739 15.6093 12.2797 15.69C12.0856 15.7706 11.8774 15.8122 11.6672 15.8124C11.2426 15.8127 10.8352 15.6444 10.5347 15.3445C10.2342 15.0445 10.0651 14.6374 10.0648 14.2128C10.0644 13.7882 10.2327 13.3808 10.5327 13.0803L15.845 7.76598C15.9562 7.6541 16.0319 7.51185 16.0625 7.3571C16.0931 7.20234 16.0772 7.042 16.017 6.89622C15.9567 6.75045 15.8547 6.62574 15.7237 6.53779C15.5928 6.44983 15.4387 6.40255 15.281 6.40189H10.0687C9.6471 6.39967 9.22932 6.48128 8.83959 6.64197C8.44987 6.80267 8.09598 7.03925 7.79851 7.33795L0.938087 14.2024C0.517356 14.6228 0.222127 15.1522 0.0855309 15.7311C-0.0510648 16.31 -0.0236208 16.9155 0.164783 17.4797C0.353187 18.0439 0.695095 18.5444 1.15213 18.925C1.60917 19.3057 2.16326 19.5515 2.7522 19.6347L10.4467 20.7088L19.2892 29.5513L20.3633 37.2498C20.4459 37.8388 20.6916 38.3929 21.0726 38.8496C21.4536 39.3062 21.9548 39.6472 22.5194 39.834C22.8483 39.9438 23.1928 39.9999 23.5395 40C23.9593 40.0008 24.3752 39.9185 24.7631 39.7578C25.151 39.5972 25.5033 39.3613 25.7996 39.0639L32.6641 32.2035C32.9619 31.9054 33.1979 31.5514 33.3585 31.1618C33.5191 30.7722 33.6012 30.3548 33.6001 29.9334V24.721C33.5998 24.5629 33.5527 24.4084 33.4647 24.277C33.3766 24.1456 33.2516 24.0433 33.1054 23.9829C32.9592 23.9226 32.7984 23.9069 32.6433 23.9379C32.4882 23.9688 32.3458 24.0451 32.234 24.157L26.9197 29.4693C26.7643 29.6249 26.5784 29.7468 26.3738 29.8274C26.1692 29.9079 25.9501 29.9454 25.7303 29.9375C25.5105 29.9297 25.2948 29.8766 25.0964 29.7815C24.8981 29.6865 24.7214 29.5517 24.5776 29.3853C24.3151 29.0678 24.1817 28.6632 24.2039 28.2518C24.2262 27.8405 24.4024 27.4526 24.6976 27.1652L34.5522 17.3106C39.8905 11.9742 40.1205 5.54384 39.9705 3.02568V3.02968Z" fill="url(#paint0_linear_4034_3027)"/>
<defs>
<linearGradient id="paint0_linear_4034_3027" x1="20" y1="0" x2="20" y2="40" gradientUnits="userSpaceOnUse">
<stop stop-color="#54A7D1"/>
<stop offset="1" stop-color="#2B556B"/>
</linearGradient>
</defs>
</svg>
