<svg width="26" height="24" viewBox="0 0 26 24" fill="none" xmlns="http://www.w3.org/2000/svg">
<path fill-rule="evenodd" clip-rule="evenodd" d="M17.4244 3.24268H9.13167C6.26922 3.24268 3.94873 5.48126 3.94873 8.24268V16.2427C3.94873 19.0041 6.26922 21.2427 9.13167 21.2427H17.4244C20.2868 21.2427 22.6073 19.0041 22.6073 16.2427V8.24268C22.6073 5.48126 20.2868 3.24268 17.4244 3.24268ZM20.7933 16.2427C20.7876 18.0353 19.2826 19.4872 17.4244 19.4927H9.13167C7.27343 19.4872 5.76845 18.0353 5.76276 16.2427V8.24268C5.76845 6.45003 7.27343 4.99817 9.13167 4.99268H17.4244C19.2826 4.99817 20.7876 6.45003 20.7933 8.24268V16.2427ZM18.2018 8.49268C18.7743 8.49268 19.2384 8.04496 19.2384 7.49268C19.2384 6.9404 18.7743 6.49268 18.2018 6.49268C17.6293 6.49268 17.1652 6.9404 17.1652 7.49268C17.1652 8.04496 17.6293 8.49268 18.2018 8.49268ZM13.278 7.74268C10.7018 7.74268 8.61338 9.7574 8.61338 12.2427C8.61338 14.728 10.7018 16.7427 13.278 16.7427C15.8543 16.7427 17.9427 14.728 17.9427 12.2427C17.9455 11.0484 17.4549 9.90225 16.5795 9.05776C15.7041 8.21327 14.516 7.74002 13.278 7.74268ZM10.4274 12.2427C10.4274 13.7615 11.7037 14.9927 13.278 14.9927C14.8524 14.9927 16.1286 13.7615 16.1286 12.2427C16.1286 10.7239 14.8524 9.49268 13.278 9.49268C11.7037 9.49268 10.4274 10.7239 10.4274 12.2427Z" fill="white"/>
</svg>
