<svg width="546" height="437" viewBox="0 0 546 437" fill="none" xmlns="http://www.w3.org/2000/svg">
<path d="M255.02 436L178.544 394.821C175.337 393.094 173.338 389.746 173.338 386.104V313.838C173.338 310.171 171.311 306.804 168.07 305.088L114.494 276.723C111.253 275.007 109.227 271.641 109.227 267.974V173.461C109.227 169.955 111.081 166.71 114.102 164.931L168.463 132.907C171.483 131.127 173.338 127.883 173.338 124.377V54.8329C173.338 51.3627 175.155 48.1459 178.127 46.3544L249.999 3.02679C253.095 1.16029 256.963 1.12994 260.088 2.94761L319.131 37.2895" stroke="url(#paint0_linear_4053_760)" stroke-width="0.99"/>
<path d="M255.048 23.5677L318.264 59.1509L256.494 95.7352L193.278 60.152L255.048 23.5677Z" fill="#1D272C"/>
<path d="M255.987 96.0047L255.987 173.674L193.785 138.661L193.784 60.9919L255.987 96.0047Z" fill="url(#paint1_linear_4053_760)" stroke="url(#paint2_linear_4053_760)" stroke-width="0.99"/>
<path d="M255.796 173.516L255.919 95.9607L317.428 59.5307L317.305 137.086L255.796 173.516Z" fill="#1F2F37" stroke="url(#paint3_linear_4053_760)" stroke-width="0.99"/>
<path d="M191.912 142.203L255.129 177.786L193.359 214.37L130.142 178.787L191.912 142.203Z" fill="#1D272C"/>
<path d="M192.853 214.641L192.853 292.311L130.651 257.298L130.651 179.628L192.853 214.641Z" fill="url(#paint4_linear_4053_760)" stroke="url(#paint5_linear_4053_760)" stroke-width="0.99"/>
<path d="M192.66 292.152L192.783 214.596L254.293 178.166L254.17 255.722L192.66 292.152Z" fill="#1F2F37" stroke="url(#paint6_linear_4053_760)" stroke-width="0.99"/>
<path d="M255.048 258.721L318.264 294.304L256.494 330.888L193.278 295.305L255.048 258.721Z" fill="#1D272C"/>
<path d="M255.987 331.158L255.987 408.828L193.785 373.815L193.784 296.145L255.987 331.158Z" fill="url(#paint7_linear_4053_760)" stroke="url(#paint8_linear_4053_760)" stroke-width="0.99"/>
<path d="M255.796 408.67L255.919 331.115L317.428 294.685L317.305 372.24L255.796 408.67Z" fill="#1F2F37" stroke="url(#paint9_linear_4053_760)" stroke-width="0.99"/>
<path d="M382.362 256.601L445.578 292.185L383.808 328.769L320.592 293.186L382.362 256.601Z" fill="#1D272C"/>
<path d="M383.301 329.039L383.302 406.708L321.099 371.695L321.099 294.026L383.301 329.039Z" fill="url(#paint10_linear_4053_760)" stroke="url(#paint11_linear_4053_760)" stroke-width="0.99"/>
<path d="M383.108 406.55L383.231 328.994L444.741 292.564L444.618 370.12L383.108 406.55Z" fill="#1F2F37" stroke="url(#paint12_linear_4053_760)" stroke-width="0.99"/>
<path d="M319.23 140.085L382.446 175.669L320.676 212.253L257.46 176.67L319.23 140.085Z" fill="#1D272C"/>
<path d="M320.17 212.523L320.17 290.192L257.967 255.18L257.967 177.51L320.17 212.523Z" fill="url(#paint13_linear_4053_760)" stroke="url(#paint14_linear_4053_760)" stroke-width="0.99"/>
<path d="M319.978 290.035L320.1 212.479L381.61 176.049L381.487 253.605L319.978 290.035Z" fill="#1F2F37" stroke="url(#paint15_linear_4053_760)" stroke-width="0.99"/>
<path d="M445.496 139.024L508.713 174.607L446.943 211.192L383.726 175.609L445.496 139.024Z" fill="#1D272C"/>
<path d="M446.437 211.462L446.437 289.131L384.235 254.119L384.235 176.449L446.437 211.462Z" fill="url(#paint16_linear_4053_760)" stroke="url(#paint17_linear_4053_760)" stroke-width="0.99"/>
<path d="M446.245 288.974L446.368 211.418L507.878 174.988L507.755 252.544L446.245 288.974Z" fill="#1F2F37" stroke="url(#paint18_linear_4053_760)" stroke-width="0.99"/>
<path d="M382.362 22.5096L445.578 58.0928L383.808 94.6771L320.592 59.0939L382.362 22.5096Z" fill="#1D272C"/>
<path d="M383.301 94.9471L383.302 172.617L321.099 137.604L321.099 59.9343L383.301 94.9471Z" fill="url(#paint19_linear_4053_760)" stroke="url(#paint20_linear_4053_760)" stroke-width="0.99"/>
<path d="M383.108 172.458L383.231 94.9021L444.741 58.4721L444.618 136.028L383.108 172.458Z" fill="#1F2F37" stroke="url(#paint21_linear_4053_760)" stroke-width="0.99"/>
<path d="M38.9316 201.746V201.994H39.1791H47.8855C48.9724 201.994 50.0161 202.436 50.7866 203.226C51.5572 204.016 51.9912 205.089 51.9912 206.208V237.442C51.9912 238.562 51.5572 239.635 50.7866 240.425C50.0161 241.214 48.9724 241.657 47.8855 241.657H4.35323C3.26632 241.657 2.22266 241.214 1.45219 240.425C0.681513 239.635 0.2475 238.562 0.2475 237.442V206.208C0.2475 205.089 0.681513 204.016 1.45219 203.226C2.22266 202.436 3.26632 201.994 4.35323 201.994H13.0597H13.3072V201.746V195.053C13.3072 191.567 14.6585 188.224 17.0619 185.761C19.4652 183.298 22.7234 181.915 26.1194 181.915C29.5154 181.915 32.7736 183.298 35.1768 185.761C37.5803 188.224 38.9316 191.567 38.9316 195.053V201.746ZM34.8258 201.994H35.0733V201.746V195.053C35.0733 192.623 34.1314 190.291 32.4529 188.57C30.7742 186.85 28.4961 185.882 26.1194 185.882C23.7426 185.882 21.4645 186.85 19.7858 188.57C18.1073 190.291 17.1654 192.623 17.1654 195.053V201.746V201.994H17.4129H34.8258ZM28.5435 230.749V223.845C29.9802 223.282 31.1878 222.234 31.9665 220.874C32.7744 219.462 33.0691 217.804 32.7993 216.191C32.5294 214.579 31.712 213.116 30.49 212.06C29.2679 211.004 27.7198 210.424 26.1194 210.424C24.5189 210.424 22.9709 211.004 21.7487 212.06C20.5267 213.116 19.7093 214.579 19.4395 216.191C19.1696 217.804 19.4643 219.462 20.2723 220.874C21.051 222.234 22.2586 223.282 23.6953 223.845V230.749C23.6953 231.405 23.9492 232.034 24.4031 232.5C24.8572 232.965 25.4745 233.228 26.1194 233.228C26.7643 233.228 27.3815 232.965 27.8356 232.5C28.2895 232.034 28.5435 231.405 28.5435 230.749Z" fill="url(#paint22_linear_4053_760)" stroke="#54B3D1" stroke-width="0.495"/>
<path d="M52.2393 221.825H109.227" stroke="url(#paint23_linear_4053_760)" stroke-width="0.99"/>
<defs>
<linearGradient id="paint0_linear_4053_760" x1="91.6553" y1="83.1842" x2="336.786" y2="123.052" gradientUnits="userSpaceOnUse">
<stop offset="0.2" stop-color="#54B3D1"/>
<stop offset="0.825" stop-color="#121212"/>
</linearGradient>
<linearGradient id="paint1_linear_4053_760" x1="256.159" y1="133.423" x2="194.506" y2="101.181" gradientUnits="userSpaceOnUse">
<stop stop-color="#1D272C"/>
<stop offset="1" stop-color="#151A1C"/>
</linearGradient>
<linearGradient id="paint2_linear_4053_760" x1="254.011" y1="95.7723" x2="221.095" y2="116.391" gradientUnits="userSpaceOnUse">
<stop offset="0.01" stop-color="#54A7D1"/>
<stop offset="0.88" stop-color="#171D20"/>
</linearGradient>
<linearGradient id="paint3_linear_4053_760" x1="259.816" y1="95.1832" x2="287.914" y2="109.557" gradientUnits="userSpaceOnUse">
<stop stop-color="#54A7D1"/>
<stop offset="1" stop-color="#171D20"/>
</linearGradient>
<linearGradient id="paint4_linear_4053_760" x1="193.025" y1="252.06" x2="131.372" y2="219.818" gradientUnits="userSpaceOnUse">
<stop stop-color="#1D272C"/>
<stop offset="1" stop-color="#151A1C"/>
</linearGradient>
<linearGradient id="paint5_linear_4053_760" x1="190.877" y1="214.409" x2="157.961" y2="235.028" gradientUnits="userSpaceOnUse">
<stop offset="0.01" stop-color="#54A7D1"/>
<stop offset="0.88" stop-color="#171D20"/>
</linearGradient>
<linearGradient id="paint6_linear_4053_760" x1="196.681" y1="213.819" x2="224.778" y2="228.193" gradientUnits="userSpaceOnUse">
<stop stop-color="#54A7D1"/>
<stop offset="1" stop-color="#171D20"/>
</linearGradient>
<linearGradient id="paint7_linear_4053_760" x1="256.159" y1="368.577" x2="194.506" y2="336.335" gradientUnits="userSpaceOnUse">
<stop stop-color="#1D272C"/>
<stop offset="1" stop-color="#151A1C"/>
</linearGradient>
<linearGradient id="paint8_linear_4053_760" x1="254.011" y1="330.926" x2="221.095" y2="351.545" gradientUnits="userSpaceOnUse">
<stop offset="0.01" stop-color="#54A7D1"/>
<stop offset="0.88" stop-color="#171D20"/>
</linearGradient>
<linearGradient id="paint9_linear_4053_760" x1="259.816" y1="330.337" x2="287.914" y2="344.711" gradientUnits="userSpaceOnUse">
<stop stop-color="#54A7D1"/>
<stop offset="1" stop-color="#171D20"/>
</linearGradient>
<linearGradient id="paint10_linear_4053_760" x1="383.473" y1="366.457" x2="321.821" y2="334.215" gradientUnits="userSpaceOnUse">
<stop stop-color="#1D272C"/>
<stop offset="1" stop-color="#151A1C"/>
</linearGradient>
<linearGradient id="paint11_linear_4053_760" x1="381.325" y1="328.806" x2="348.409" y2="349.425" gradientUnits="userSpaceOnUse">
<stop offset="0.01" stop-color="#54A7D1"/>
<stop offset="0.88" stop-color="#171D20"/>
</linearGradient>
<linearGradient id="paint12_linear_4053_760" x1="387.129" y1="328.217" x2="415.226" y2="342.591" gradientUnits="userSpaceOnUse">
<stop stop-color="#54A7D1"/>
<stop offset="1" stop-color="#171D20"/>
</linearGradient>
<linearGradient id="paint13_linear_4053_760" x1="320.342" y1="249.942" x2="258.689" y2="217.7" gradientUnits="userSpaceOnUse">
<stop stop-color="#1D272C"/>
<stop offset="1" stop-color="#151A1C"/>
</linearGradient>
<linearGradient id="paint14_linear_4053_760" x1="318.193" y1="212.291" x2="285.277" y2="232.91" gradientUnits="userSpaceOnUse">
<stop offset="0.01" stop-color="#54A7D1"/>
<stop offset="0.88" stop-color="#171D20"/>
</linearGradient>
<linearGradient id="paint15_linear_4053_760" x1="323.998" y1="211.701" x2="352.095" y2="226.075" gradientUnits="userSpaceOnUse">
<stop stop-color="#54A7D1"/>
<stop offset="1" stop-color="#171D20"/>
</linearGradient>
<linearGradient id="paint16_linear_4053_760" x1="446.609" y1="248.881" x2="384.956" y2="216.638" gradientUnits="userSpaceOnUse">
<stop stop-color="#1D272C"/>
<stop offset="1" stop-color="#151A1C"/>
</linearGradient>
<linearGradient id="paint17_linear_4053_760" x1="444.461" y1="211.23" x2="411.545" y2="231.849" gradientUnits="userSpaceOnUse">
<stop offset="0.01" stop-color="#54A7D1"/>
<stop offset="0.88" stop-color="#171D20"/>
</linearGradient>
<linearGradient id="paint18_linear_4053_760" x1="450.266" y1="210.641" x2="478.363" y2="225.015" gradientUnits="userSpaceOnUse">
<stop stop-color="#54A7D1"/>
<stop offset="1" stop-color="#171D20"/>
</linearGradient>
<linearGradient id="paint19_linear_4053_760" x1="383.473" y1="132.366" x2="321.821" y2="100.124" gradientUnits="userSpaceOnUse">
<stop stop-color="#1D272C"/>
<stop offset="1" stop-color="#151A1C"/>
</linearGradient>
<linearGradient id="paint20_linear_4053_760" x1="381.325" y1="94.7147" x2="348.409" y2="115.334" gradientUnits="userSpaceOnUse">
<stop offset="0.01" stop-color="#54A7D1"/>
<stop offset="0.88" stop-color="#171D20"/>
</linearGradient>
<linearGradient id="paint21_linear_4053_760" x1="387.129" y1="94.1246" x2="415.226" y2="108.499" gradientUnits="userSpaceOnUse">
<stop stop-color="#54A7D1"/>
<stop offset="1" stop-color="#171D20"/>
</linearGradient>
<linearGradient id="paint22_linear_4053_760" x1="26.5943" y1="334.172" x2="26.0404" y2="202.062" gradientUnits="userSpaceOnUse">
<stop offset="0.999271" stop-color="#1F2F37"/>
<stop offset="1" stop-color="#4FA8C3"/>
</linearGradient>
<linearGradient id="paint23_linear_4053_760" x1="52.2393" y1="222.325" x2="132.497" y2="221.874" gradientUnits="userSpaceOnUse">
<stop stop-color="#54A7D1"/>
<stop offset="1" stop-color="#54B3D1"/>
</linearGradient>
</defs>
</svg>
