<svg width="42" height="42" viewBox="0 0 42 42" fill="none" xmlns="http://www.w3.org/2000/svg">
<path d="M27.4615 25.8461C27.4615 26.703 27.1212 27.5248 26.5153 28.1306C25.9094 28.7365 25.0876 29.0769 24.2308 29.0769H22.6154V22.6154H24.2308C25.0876 22.6154 25.9094 22.9558 26.5153 23.5616C27.1212 24.1675 27.4615 24.9893 27.4615 25.8461ZM42 21C42 25.1534 40.7684 29.2135 38.4609 32.667C36.1534 36.1204 32.8736 38.812 29.0364 40.4015C25.1991 41.9909 20.9767 42.4068 16.9031 41.5965C12.8295 40.7862 9.08767 38.7861 6.15077 35.8492C3.21386 32.9123 1.21381 29.1705 0.403518 25.0969C-0.406771 21.0233 0.00909897 16.8009 1.59854 12.9636C3.18798 9.1264 5.8796 5.84665 9.33303 3.53914C12.7865 1.23163 16.8466 0 21 0C26.5677 0.00587963 31.9058 2.22026 35.8427 6.15725C39.7797 10.0942 41.9941 15.4323 42 21ZM30.6923 25.8461C30.6923 24.1324 30.0115 22.4889 28.7998 21.2772C27.588 20.0654 25.9445 19.3846 24.2308 19.3846H22.6154V12.9231H23.4231C24.2799 12.9231 25.1017 13.2635 25.7076 13.8693C26.3135 14.4752 26.6538 15.297 26.6538 16.1538C26.6538 16.5823 26.824 16.9931 27.127 17.2961C27.4299 17.599 27.8408 17.7692 28.2692 17.7692C28.6977 17.7692 29.1085 17.599 29.4115 17.2961C29.7144 16.9931 29.8846 16.5823 29.8846 16.1538C29.8846 14.4401 29.2038 12.7966 27.9921 11.5848C26.7803 10.3731 25.1368 9.69231 23.4231 9.69231H22.6154V8.07692C22.6154 7.64849 22.4452 7.23762 22.1423 6.93467C21.8393 6.63173 21.4284 6.46154 21 6.46154C20.5716 6.46154 20.1607 6.63173 19.8578 6.93467C19.5548 7.23762 19.3846 7.64849 19.3846 8.07692V9.69231H18.5769C16.8632 9.69231 15.2197 10.3731 14.0079 11.5848C12.7962 12.7966 12.1154 14.4401 12.1154 16.1538C12.1154 17.8675 12.7962 19.5111 14.0079 20.7228C15.2197 21.9346 16.8632 22.6154 18.5769 22.6154H19.3846V29.0769H17.7692C16.9124 29.0769 16.0906 28.7365 15.4847 28.1306C14.8789 27.5248 14.5385 26.703 14.5385 25.8461C14.5385 25.4177 14.3683 25.0068 14.0653 24.7039C13.7624 24.401 13.3515 24.2308 12.9231 24.2308C12.4947 24.2308 12.0838 24.401 11.7808 24.7039C11.4779 25.0068 11.3077 25.4177 11.3077 25.8461C11.3077 27.5599 11.9885 29.2034 13.2002 30.4151C14.412 31.6269 16.0555 32.3077 17.7692 32.3077H19.3846V33.9231C19.3846 34.3515 19.5548 34.7624 19.8578 35.0653C20.1607 35.3683 20.5716 35.5385 21 35.5385C21.4284 35.5385 21.8393 35.3683 22.1423 35.0653C22.4452 34.7624 22.6154 34.3515 22.6154 33.9231V32.3077H24.2308C25.9445 32.3077 27.588 31.6269 28.7998 30.4151C30.0115 29.2034 30.6923 27.5599 30.6923 25.8461ZM15.3462 16.1538C15.3462 17.0107 15.6865 17.8325 16.2924 18.4383C16.8983 19.0442 17.7201 19.3846 18.5769 19.3846H19.3846V12.9231H18.5769C17.7201 12.9231 16.8983 13.2635 16.2924 13.8693C15.6865 14.4752 15.3462 15.297 15.3462 16.1538Z" fill="url(#paint0_linear_4034_3126)"/>
<defs>
<linearGradient id="paint0_linear_4034_3126" x1="21" y1="0" x2="21" y2="42" gradientUnits="userSpaceOnUse">
<stop stop-color="#54A7D1"/>
<stop offset="1" stop-color="#2B556B"/>
</linearGradient>
</defs>
</svg>
