<svg width="26" height="24" viewBox="0 0 26 24" fill="none" xmlns="http://www.w3.org/2000/svg">
<path fill-rule="evenodd" clip-rule="evenodd" d="M5.02607 3.24268C4.16733 3.24268 3.47119 3.91425 3.47119 4.74268V19.7427C3.47119 20.5711 4.16733 21.2427 5.02607 21.2427H20.5749C21.4336 21.2427 22.1298 20.5711 22.1298 19.7427V4.74268C22.1298 3.91425 21.4336 3.24268 20.5749 3.24268H5.02607ZM9.19395 7.2454C9.19978 8.20165 8.45781 8.79087 7.57736 8.78665C6.74792 8.78243 6.0249 8.1454 6.02927 7.24681C6.03365 6.40165 6.72606 5.72243 7.62546 5.74212C8.53798 5.76181 9.19978 6.40728 9.19395 7.2454ZM13.0904 10.0044H10.4782H10.4768V18.5643H13.2376V18.3646C13.2376 17.9847 13.2373 17.6047 13.237 17.2246C13.2362 16.2108 13.2352 15.1959 13.2406 14.1824C13.2421 13.9363 13.2537 13.6804 13.3193 13.4455C13.5656 12.568 14.3835 12.0013 15.296 12.1406C15.882 12.2291 16.2696 12.5568 16.4329 13.0898C16.5336 13.423 16.5787 13.7816 16.5831 14.129C16.5949 15.1766 16.5933 16.2242 16.5916 17.2719C16.591 17.6417 16.5904 18.0117 16.5904 18.3815V18.5629H19.36V18.3576C19.36 17.9056 19.3598 17.4537 19.3595 17.0018C19.359 15.8723 19.3584 14.7428 19.3615 13.6129C19.3629 13.1024 19.3061 12.599 19.1763 12.1054C18.9825 11.3713 18.5816 10.7638 17.93 10.3251C17.4679 10.0129 16.9606 9.81178 16.3936 9.78928C16.329 9.78669 16.2639 9.7833 16.1985 9.77989C15.9086 9.76477 15.6139 9.74941 15.3367 9.80334C14.5437 9.95662 13.847 10.3068 13.3207 10.9241C13.2596 10.9949 13.1998 11.0668 13.1105 11.1741L13.0904 11.1984V10.0044ZM6.25095 18.5671H8.99872V10.01H6.25095V18.5671Z" fill="white"/>
</svg>
