<svg width="31" height="32" viewBox="0 0 31 32" fill="none" xmlns="http://www.w3.org/2000/svg">
<path d="M27.8255 0H2.52959C1.8587 0 1.21529 0.26651 0.740901 0.740901C0.26651 1.21529 0 1.8587 0 2.52959V11.3832C0 19.7182 4.0347 24.7695 7.41961 27.5394C11.0654 30.5211 14.6922 31.5345 14.8503 31.5756C15.0677 31.6348 15.2969 31.6348 15.5143 31.5756C15.6724 31.5345 19.2945 30.5211 22.945 27.5394C26.3204 24.7695 30.3551 19.7182 30.3551 11.3832V2.52959C30.3551 1.8587 30.0886 1.21529 29.6142 0.740901C29.1398 0.26651 28.4964 0 27.8255 0ZM21.9758 13.8226L17.1838 15.7388L19.9838 19.4779C20.1851 19.7462 20.2715 20.0835 20.224 20.4156C20.1766 20.7477 19.9992 21.0473 19.7308 21.2486C19.4625 21.4498 19.1252 21.5363 18.7931 21.4888C18.461 21.4414 18.1614 21.264 17.9601 20.9956L15.1776 17.285L12.395 20.9956C12.2953 21.1285 12.1705 21.2404 12.0276 21.3251C11.8847 21.4097 11.7265 21.4653 11.562 21.4888C11.3976 21.5123 11.2302 21.5032 11.0693 21.462C10.9084 21.4207 10.7572 21.3482 10.6243 21.2486C10.4914 21.1489 10.3795 21.0241 10.2948 20.8812C10.2102 20.7382 10.1546 20.58 10.1311 20.4156C10.1076 20.2512 10.1167 20.0837 10.1579 19.9228C10.1992 19.7619 10.2717 19.6107 10.3713 19.4779L13.176 15.7388L8.37928 13.8226C8.06773 13.6969 7.81892 13.4525 7.68757 13.1432C7.62254 12.9901 7.5883 12.8257 7.58681 12.6593C7.58532 12.4929 7.61661 12.3279 7.6789 12.1737C7.74118 12.0194 7.83324 11.8789 7.94982 11.7602C8.0664 11.6416 8.20521 11.547 8.35833 11.482C8.66757 11.3506 9.01633 11.3475 9.32787 11.4733L13.9128 13.3088V8.85358C13.9128 8.51813 14.046 8.19643 14.2832 7.95923C14.5204 7.72203 14.8421 7.58878 15.1776 7.58878C15.513 7.58878 15.8347 7.72203 16.0719 7.95923C16.3091 8.19643 16.4424 8.51813 16.4424 8.85358V13.3088L21.0272 11.4733C21.1815 11.411 21.3465 11.3797 21.5129 11.3812C21.6792 11.3827 21.8437 11.4169 21.9968 11.482C22.1499 11.547 22.2887 11.6416 22.4053 11.7602C22.5219 11.8789 22.6139 12.0194 22.6762 12.1737C22.7385 12.3279 22.7698 12.4929 22.7683 12.6593C22.7668 12.8257 22.7326 12.9901 22.6675 13.1432C22.6025 13.2963 22.5079 13.4351 22.3893 13.5517C22.2706 13.6683 22.1301 13.7604 21.9758 13.8226Z" fill="url(#paint0_linear_2874_1058)"/>
<defs>
<linearGradient id="paint0_linear_2874_1058" x1="15.1776" y1="0" x2="15.1776" y2="31.62" gradientUnits="userSpaceOnUse">
<stop stop-color="#54A7D1"/>
<stop offset="1" stop-color="#2B556B"/>
</linearGradient>
</defs>
</svg>
