<svg width="41" height="41" viewBox="0 0 41 41" fill="none" xmlns="http://www.w3.org/2000/svg">
<path d="M41 20.5C41 16.4455 39.7977 12.482 37.5451 9.11082C35.2926 5.73961 32.0909 3.11207 28.345 1.56048C24.5991 0.00888228 20.4773 -0.397086 16.5007 0.393911C12.524 1.18491 8.87129 3.13734 6.00432 6.00432C3.13734 8.87129 1.18491 12.524 0.393911 16.5007C-0.397086 20.4773 0.00888228 24.5991 1.56048 28.345C3.11207 32.0909 5.73961 35.2926 9.11082 37.5451C12.482 39.7977 16.4455 41 20.5 41C25.9352 40.9943 31.1461 38.8326 34.9894 34.9894C38.8326 31.1461 40.9943 25.9352 41 20.5ZM27.9234 20.0388C27.7769 20.1854 27.603 20.3017 27.4116 20.381C27.2201 20.4604 27.0149 20.5012 26.8077 20.5012C26.6005 20.5012 26.3953 20.4604 26.2038 20.381C26.0124 20.3017 25.8385 20.1854 25.692 20.0388L22.0769 16.4217V28.3846C22.0769 28.8028 21.9108 29.2039 21.6151 29.4997C21.3193 29.7954 20.9182 29.9615 20.5 29.9615C20.0818 29.9615 19.6807 29.7954 19.385 29.4997C19.0892 29.2039 18.9231 28.8028 18.9231 28.3846V16.4217L15.308 20.0388C15.0121 20.3347 14.6108 20.5009 14.1923 20.5009C13.7739 20.5009 13.3725 20.3347 13.0766 20.0388C12.7807 19.7429 12.6145 19.3415 12.6145 18.9231C12.6145 18.5046 12.7807 18.1033 13.0766 17.8074L19.3843 11.4997C19.5308 11.3531 19.7047 11.2368 19.8961 11.1574C20.0876 11.0781 20.2928 11.0372 20.5 11.0372C20.7072 11.0372 20.9124 11.0781 21.1039 11.1574C21.2953 11.2368 21.4692 11.3531 21.6157 11.4997L27.9234 17.8074C28.07 17.9539 28.1863 18.1278 28.2657 18.3192C28.345 18.5107 28.3859 18.7159 28.3859 18.9231C28.3859 19.1303 28.345 19.3355 28.2657 19.5269C28.1863 19.7184 28.07 19.8923 27.9234 20.0388Z" fill="url(#paint0_linear_4034_3134)"/>
<defs>
<linearGradient id="paint0_linear_4034_3134" x1="20.5" y1="0" x2="20.5" y2="41" gradientUnits="userSpaceOnUse">
<stop stop-color="#54A7D1"/>
<stop offset="1" stop-color="#2B556B"/>
</linearGradient>
</defs>
</svg>
