<svg width="40" height="40" viewBox="0 0 40 40" fill="none" xmlns="http://www.w3.org/2000/svg">
<path d="M40 1.81818V12.7273C40.0003 13.0871 39.8938 13.4389 39.694 13.7381C39.4943 14.0374 39.2102 14.2707 38.8778 14.4084C38.5454 14.5461 38.1796 14.5821 37.8267 14.5119C37.4738 14.4416 37.1497 14.2682 36.8955 14.0136L32.7273 9.84318L26.7409 15.8318C26.3997 16.173 25.937 16.3646 25.4545 16.3646C24.9721 16.3646 24.5093 16.173 24.1682 15.8318C23.827 15.4907 23.6354 15.0279 23.6354 14.5455C23.6354 14.063 23.827 13.6003 24.1682 13.2591L30.1568 7.27273L25.9864 3.10455C25.7318 2.85026 25.5584 2.52617 25.4881 2.17329C25.4179 1.8204 25.4539 1.45461 25.5916 1.1222C25.7293 0.789795 25.9626 0.505729 26.2619 0.305964C26.5611 0.106199 26.9129 -0.000282595 27.2727 5.63274e-07H38.1818C38.664 5.63274e-07 39.1265 0.191559 39.4675 0.532534C39.8084 0.873509 40 1.33597 40 1.81818ZM13.2591 24.1682L7.27273 30.1568L3.10455 25.9864C2.85026 25.7318 2.52617 25.5584 2.17329 25.4881C1.8204 25.4179 1.45461 25.4539 1.1222 25.5916C0.789795 25.7293 0.505729 25.9626 0.305964 26.2619C0.106199 26.5611 -0.000282595 26.9129 5.63274e-07 27.2727V38.1818C5.63274e-07 38.664 0.191559 39.1265 0.532534 39.4675C0.873509 39.8084 1.33597 40 1.81818 40H12.7273C13.0871 40.0003 13.4389 39.8938 13.7381 39.694C14.0374 39.4943 14.2707 39.2102 14.4084 38.8778C14.5461 38.5454 14.5821 38.1796 14.5119 37.8267C14.4416 37.4738 14.2682 37.1497 14.0136 36.8955L9.84318 32.7273L15.8318 26.7409C16.173 26.3997 16.3646 25.937 16.3646 25.4545C16.3646 24.9721 16.173 24.5093 15.8318 24.1682C15.4907 23.827 15.0279 23.6354 14.5455 23.6354C14.063 23.6354 13.6003 23.827 13.2591 24.1682ZM38.8773 25.5932C38.5451 25.4554 38.1795 25.4192 37.8267 25.4891C37.474 25.5591 37.1499 25.7322 36.8955 25.9864L32.7273 30.1568L26.7409 24.1682C26.3997 23.827 25.937 23.6354 25.4545 23.6354C24.9721 23.6354 24.5093 23.827 24.1682 24.1682C23.827 24.5093 23.6354 24.9721 23.6354 25.4545C23.6354 25.937 23.827 26.3997 24.1682 26.7409L30.1568 32.7273L25.9864 36.8955C25.7318 37.1497 25.5584 37.4738 25.4881 37.8267C25.4179 38.1796 25.4539 38.5454 25.5916 38.8778C25.7293 39.2102 25.9626 39.4943 26.2619 39.694C26.5611 39.8938 26.9129 40.0003 27.2727 40H38.1818C38.664 40 39.1265 39.8084 39.4675 39.4675C39.8084 39.1265 40 38.664 40 38.1818V27.2727C39.9999 26.9131 39.8932 26.5616 39.6934 26.2627C39.4935 25.9637 39.2095 25.7307 38.8773 25.5932ZM9.84318 7.27273L14.0136 3.10455C14.2682 2.85026 14.4416 2.52617 14.5119 2.17329C14.5821 1.8204 14.5461 1.45461 14.4084 1.1222C14.2707 0.789795 14.0374 0.505729 13.7381 0.305964C13.4389 0.106199 13.0871 -0.000282595 12.7273 5.63274e-07H1.81818C1.33597 5.63274e-07 0.873509 0.191559 0.532534 0.532534C0.191559 0.873509 5.63274e-07 1.33597 5.63274e-07 1.81818V12.7273C-0.000282595 13.0871 0.106199 13.4389 0.305964 13.7381C0.505729 14.0374 0.789795 14.2707 1.1222 14.4084C1.45461 14.5461 1.8204 14.5821 2.17329 14.5119C2.52617 14.4416 2.85026 14.2682 3.10455 14.0136L7.27273 9.84318L13.2591 15.8318C13.6003 16.173 14.063 16.3646 14.5455 16.3646C15.0279 16.3646 15.4907 16.173 15.8318 15.8318C16.173 15.4907 16.3646 15.0279 16.3646 14.5455C16.3646 14.063 16.173 13.6003 15.8318 13.2591L9.84318 7.27273Z" fill="url(#paint0_linear_4034_3141)"/>
<defs>
<linearGradient id="paint0_linear_4034_3141" x1="20" y1="0" x2="20" y2="40" gradientUnits="userSpaceOnUse">
<stop stop-color="#54A7D1"/>
<stop offset="1" stop-color="#2B556B"/>
</linearGradient>
</defs>
</svg>
