<svg width="46" height="37" viewBox="0 0 46 37" fill="none" xmlns="http://www.w3.org/2000/svg">
<path d="M44.4667 33.9167H41.4V12.3333C41.8067 12.3333 42.1967 12.1709 42.4842 11.8818C42.7718 11.5927 42.9333 11.2005 42.9333 10.7917C42.9333 10.3828 42.7718 9.99066 42.4842 9.70154C42.1967 9.41243 41.8067 9.25 41.4 9.25H32.2V3.08333C32.6067 3.08333 32.9967 2.92091 33.2842 2.63179C33.5718 2.34267 33.7333 1.95054 33.7333 1.54167C33.7333 1.13279 33.5718 0.740663 33.2842 0.451544C32.9967 0.162425 32.6067 0 32.2 0H4.6C4.19333 0 3.80333 0.162425 3.51577 0.451544C3.22821 0.740663 3.06667 1.13279 3.06667 1.54167C3.06667 1.95054 3.22821 2.34267 3.51577 2.63179C3.80333 2.92091 4.19333 3.08333 4.6 3.08333V33.9167H1.53333C1.12667 33.9167 0.736659 34.0791 0.449103 34.3682C0.161547 34.6573 0 35.0495 0 35.4583C0 35.8672 0.161547 36.2593 0.449103 36.5485C0.736659 36.8376 1.12667 37 1.53333 37H44.4667C44.8733 37 45.2633 36.8376 45.5509 36.5485C45.8385 36.2593 46 35.8672 46 35.4583C46 35.0495 45.8385 34.6573 45.5509 34.3682C45.2633 34.0791 44.8733 33.9167 44.4667 33.9167ZM12.2667 7.70833H15.3333C15.74 7.70833 16.13 7.87076 16.4176 8.15988C16.7051 8.449 16.8667 8.84112 16.8667 9.25C16.8667 9.65888 16.7051 10.051 16.4176 10.3401C16.13 10.6292 15.74 10.7917 15.3333 10.7917H12.2667C11.86 10.7917 11.47 10.6292 11.1824 10.3401C10.8949 10.051 10.7333 9.65888 10.7333 9.25C10.7333 8.84112 10.8949 8.449 11.1824 8.15988C11.47 7.87076 11.86 7.70833 12.2667 7.70833ZM10.7333 16.9583C10.7333 16.5495 10.8949 16.1573 11.1824 15.8682C11.47 15.5791 11.86 15.4167 12.2667 15.4167H15.3333C15.74 15.4167 16.13 15.5791 16.4176 15.8682C16.7051 16.1573 16.8667 16.5495 16.8667 16.9583C16.8667 17.3672 16.7051 17.7593 16.4176 18.0485C16.13 18.3376 15.74 18.5 15.3333 18.5H12.2667C11.86 18.5 11.47 18.3376 11.1824 18.0485C10.8949 17.7593 10.7333 17.3672 10.7333 16.9583ZM23 33.9167H13.8V24.6667H23V33.9167ZM24.5333 18.5H21.4667C21.06 18.5 20.67 18.3376 20.3824 18.0485C20.0949 17.7593 19.9333 17.3672 19.9333 16.9583C19.9333 16.5495 20.0949 16.1573 20.3824 15.8682C20.67 15.5791 21.06 15.4167 21.4667 15.4167H24.5333C24.94 15.4167 25.33 15.5791 25.6176 15.8682C25.9051 16.1573 26.0667 16.5495 26.0667 16.9583C26.0667 17.3672 25.9051 17.7593 25.6176 18.0485C25.33 18.3376 24.94 18.5 24.5333 18.5ZM24.5333 10.7917H21.4667C21.06 10.7917 20.67 10.6292 20.3824 10.3401C20.0949 10.051 19.9333 9.65888 19.9333 9.25C19.9333 8.84112 20.0949 8.449 20.3824 8.15988C20.67 7.87076 21.06 7.70833 21.4667 7.70833H24.5333C24.94 7.70833 25.33 7.87076 25.6176 8.15988C25.9051 8.449 26.0667 8.84112 26.0667 9.25C26.0667 9.65888 25.9051 10.051 25.6176 10.3401C25.33 10.6292 24.94 10.7917 24.5333 10.7917ZM38.3333 33.9167H32.2V12.3333H38.3333V33.9167Z" fill="url(#paint0_linear_4034_3038)"/>
<defs>
<linearGradient id="paint0_linear_4034_3038" x1="23" y1="0" x2="23" y2="37" gradientUnits="userSpaceOnUse">
<stop stop-color="#54A7D1"/>
<stop offset="1" stop-color="#2B556B"/>
</linearGradient>
</defs>
</svg>
