<svg width="36" height="35" viewBox="0 0 36 35" fill="none" xmlns="http://www.w3.org/2000/svg">
<path d="M24.596 16.8448L8.97728 33.7186C8.78058 33.9327 8.51836 34.0754 8.23177 34.1244C7.94519 34.1733 7.65046 34.1257 7.39385 33.9891C7.13723 33.8524 6.93325 33.6344 6.81393 33.3693C6.6946 33.1042 6.66668 32.8069 6.73455 32.5242L8.97728 23.0808L0.774156 19.3992C0.584251 19.3138 0.417391 19.1845 0.287361 19.0218C0.157332 18.8592 0.0678646 18.6679 0.0263499 18.4639C-0.0151648 18.2599 -0.00753529 18.0489 0.0486082 17.8483C0.104752 17.6478 0.207798 17.4635 0.349234 17.3107L15.968 0.436893C16.1636 0.218431 16.4268 0.0717837 16.7155 0.0203476C17.0042 -0.0310885 17.3019 0.01565 17.5609 0.153106C17.82 0.290563 18.0255 0.510818 18.1448 0.778733C18.264 1.04665 18.2901 1.34679 18.2189 1.63127L15.9729 11.0747L24.176 14.7546C24.3662 14.84 24.5334 14.9694 24.6636 15.1321C24.7938 15.2949 24.8834 15.4864 24.9249 15.6906C24.9665 15.8949 24.9588 16.1062 24.9024 16.3069C24.8461 16.5076 24.7427 16.692 24.601 16.8448H24.596ZM34.7203 34.0008C34.5382 34.0928 34.337 34.1406 34.133 34.1403C33.8891 34.1404 33.6501 34.0727 33.4426 33.9446C33.2351 33.8165 33.0674 33.6332 32.9583 33.4151L31.3521 30.2028H25.0997L23.4935 33.4151C23.3378 33.7264 23.0647 33.9631 22.7344 34.0731C22.4041 34.1831 22.0436 34.1574 21.7323 34.0016C21.421 33.8458 21.1843 33.5728 21.0743 33.2425C20.9643 32.9122 20.99 32.5517 21.1458 32.2404L27.052 20.4279C27.1611 20.2099 27.3286 20.0266 27.536 19.8985C27.7433 19.7704 27.9822 19.7025 28.2259 19.7025C28.4696 19.7025 28.7085 19.7704 28.9159 19.8985C29.1232 20.0266 29.2908 20.2099 29.3998 20.4279L35.306 32.2404C35.4616 32.5515 35.4873 32.9117 35.3775 33.2418C35.2677 33.5719 35.0313 33.8449 34.7203 34.0008ZM30.0396 27.5778L28.2267 23.9503L26.4122 27.5778H30.0396Z" fill="url(#paint0_linear_2766_2124)"/>
<defs>
<linearGradient id="paint0_linear_2766_2124" x1="17.7223" y1="0" x2="17.7223" y2="34.1431" gradientUnits="userSpaceOnUse">
<stop stop-color="#54A7D1"/>
<stop offset="1" stop-color="#2B556B"/>
</linearGradient>
</defs>
</svg>
