<svg width="32" height="40" viewBox="0 0 32 40" fill="none" xmlns="http://www.w3.org/2000/svg">
<path d="M28.8 0H3.2C2.35131 0 1.53737 0.324175 0.937258 0.90121C0.337142 1.47824 0 2.26087 0 3.07692V36.9231C0 37.7391 0.337142 38.5218 0.937258 39.0988C1.53737 39.6758 2.35131 40 3.2 40H28.8C29.6487 40 30.4626 39.6758 31.0627 39.0988C31.6629 38.5218 32 37.7391 32 36.9231V3.07692C32 2.26087 31.6629 1.47824 31.0627 0.90121C30.4626 0.324175 29.6487 0 28.8 0ZM16 32.3077C15.5253 32.3077 15.0613 32.1723 14.6666 31.9188C14.272 31.6652 13.9643 31.3048 13.7827 30.8831C13.601 30.4614 13.5535 29.9974 13.6461 29.5498C13.7387 29.1021 13.9673 28.691 14.3029 28.3682C14.6386 28.0455 15.0662 27.8257 15.5318 27.7367C15.9973 27.6476 16.4799 27.6933 16.9184 27.868C17.357 28.0426 17.7318 28.3384 17.9955 28.7179C18.2592 29.0974 18.4 29.5436 18.4 30C18.4 30.612 18.1471 31.199 17.6971 31.6318C17.247 32.0646 16.6365 32.3077 16 32.3077ZM22.4 16.9231H9.6C9.17565 16.9231 8.76869 16.761 8.46863 16.4725C8.16857 16.184 8 15.7926 8 15.3846C8 14.9766 8.16857 14.5853 8.46863 14.2968C8.76869 14.0082 9.17565 13.8462 9.6 13.8462H22.4C22.8243 13.8462 23.2313 14.0082 23.5314 14.2968C23.8314 14.5853 24 14.9766 24 15.3846C24 15.7926 23.8314 16.184 23.5314 16.4725C23.2313 16.761 22.8243 16.9231 22.4 16.9231ZM22.4 10.7692H9.6C9.17565 10.7692 8.76869 10.6071 8.46863 10.3186C8.16857 10.0301 8 9.63879 8 9.23077C8 8.82274 8.16857 8.43143 8.46863 8.14291C8.76869 7.8544 9.17565 7.69231 9.6 7.69231H22.4C22.8243 7.69231 23.2313 7.8544 23.5314 8.14291C23.8314 8.43143 24 8.82274 24 9.23077C24 9.63879 23.8314 10.0301 23.5314 10.3186C23.2313 10.6071 22.8243 10.7692 22.4 10.7692Z" fill="url(#paint0_linear_4034_3033)"/>
<defs>
<linearGradient id="paint0_linear_4034_3033" x1="16" y1="0" x2="16" y2="40" gradientUnits="userSpaceOnUse">
<stop stop-color="#54A7D1"/>
<stop offset="1" stop-color="#2B556B"/>
</linearGradient>
</defs>
</svg>
